<?xml version="1.0" encoding="UTF-8" standalone="no"?>
<!-- Created with Inkscape (http://www.inkscape.org/) -->

<svg
   id="svg2"
   version="1.1"
   inkscape:version="1.1.2 (0a00cf5339, 2022-02-04)"
   xml:space="preserve"
   width="24"
   height="24"
   viewBox="0 0 24 24"
   sodipodi:docname="assembly-symbolic.svg"
   inkscape:export-filename="/home/cpwd/Documents/electricdesign/electricdesign/element_library/1.svg.png"
   inkscape:export-xdpi="11.52"
   inkscape:export-ydpi="11.52"
   xmlns:inkscape="http://www.inkscape.org/namespaces/inkscape"
   xmlns:sodipodi="http://sodipodi.sourceforge.net/DTD/sodipodi-0.dtd"
   xmlns="http://www.w3.org/2000/svg"
   xmlns:svg="http://www.w3.org/2000/svg"
   xmlns:rdf="http://www.w3.org/1999/02/22-rdf-syntax-ns#"
   xmlns:cc="http://creativecommons.org/ns#"
   xmlns:dc="http://purl.org/dc/elements/1.1/"><metadata
     id="metadata8"><rdf:RDF><cc:Work
         rdf:about=""><dc:format>image/svg+xml</dc:format><dc:type
           rdf:resource="http://purl.org/dc/dcmitype/StillImage" /></cc:Work></rdf:RDF></metadata><defs
     id="defs6"><clipPath
       clipPathUnits="userSpaceOnUse"
       id="clipPath16"><path
         d="M 0,0 H 1191 V 842 H 0 Z"
         id="path18"
         inkscape:connector-curvature="0" /></clipPath><clipPath
       clipPathUnits="userSpaceOnUse"
       id="clipPath36"><path
         d="M 0,0 H 1191 V 842 H 0 Z"
         id="path38"
         inkscape:connector-curvature="0" /></clipPath></defs><sodipodi:namedview
     pagecolor="#ffffff"
     bordercolor="#666666"
     borderopacity="1"
     objecttolerance="10"
     gridtolerance="10"
     guidetolerance="10"
     inkscape:pageopacity="0"
     inkscape:pageshadow="2"
     inkscape:window-width="1846"
     inkscape:window-height="1016"
     id="namedview4"
     showgrid="false"
     fit-margin-top="20"
     fit-margin-left="20"
     fit-margin-right="20"
     fit-margin-bottom="20"
     inkscape:zoom="12.765625"
     inkscape:cx="-2.7809058"
     inkscape:cy="15.197062"
     inkscape:window-x="0"
     inkscape:window-y="0"
     inkscape:window-maximized="1"
     inkscape:current-layer="g833"
     inkscape:pagecheckerboard="0"
     showguides="false"><sodipodi:guide
       position="10.183599,22.903305"
       orientation="0,-1"
       id="guide1084" /></sodipodi:namedview><g
     id="g10"
     inkscape:groupmode="layer"
     inkscape:label="1"
     transform="matrix(1.25,0,0,-1.25,-683.64159,65.583563)"><g
       id="g12"
       style="fill:#000000;stroke:#000000;stroke-width:21.66941833;stroke-miterlimit:4;stroke-dasharray:none;stroke-opacity:1"
       transform="matrix(0.92295969,0,0,0.92295969,336.62949,3.3268985)"><g
         id="g14"
         clip-path="url(#clipPath16)"
         style="fill:#000000;stroke:#000000;stroke-width:21.66941833;stroke-miterlimit:4;stroke-dasharray:none;stroke-opacity:1"><g
           id="g20"
           transform="scale(0.12)"
           style="fill:#000000;stroke:#000000;stroke-width:180.57849121;stroke-miterlimit:4;stroke-dasharray:none;stroke-opacity:1"><g
             id="g49"
             transform="matrix(0.41485838,0,0,0.41485838,1214.4661,188.3424)"><g
               id="g855"
               transform="translate(-0.63227499,7.0717434)"><g
                 id="g865"
                 transform="translate(-12.315239,9.367144)"><g
                   id="g878"
                   transform="translate(0.85795019,7.8894892)"><g
                     id="g832"><g
                       id="g833"
                       transform="translate(0.5966612,3.3245312)"><g
                         id="g1053"
                         transform="matrix(1.0168,0,0,1.0168,-33.486518,-4.2879318)"><path
                           style="color:#000000;fill:#000000;fill-opacity:1;stroke:none;stroke-width:219.963;stroke-linecap:square;stroke-linejoin:round;stroke-miterlimit:10;stroke-dasharray:63.6253, 63.6253;-inkscape-stroke:none"
                           d="m 1677.0557,171.67241 a 10.605279,10.605279 0 0 0 -10.6037,10.60364 v 41.40823 10.60602 h 21.2097 V 223.68428 192.8797 h 11.6099 10.6061 v -21.20729 h -10.6061 z m 75.2389,0 v 21.20729 h 10.6037 63.6242 10.6037 v -21.20729 h -10.6037 -63.6242 z m 127.2485,0 v 21.20729 h 10.606 63.6243 10.6036 v -21.20729 h -10.6036 -63.6243 z m 127.2509,0 v 21.20729 h 10.606 38.2084 v 4.20626 10.60363 h 21.2096 v -10.60363 -14.80991 a 10.605279,10.605279 0 0 0 -10.6036,-10.60364 H 2017.4 Z m 48.8144,78.43415 v 10.60602 63.62425 10.60365 h 21.2096 v -10.60365 -63.62425 -10.60602 z m -389.1564,26.6007 v 10.60365 63.62426 10.60603 h 21.2097 v -10.60603 -63.62426 -10.60365 z m 389.1564,100.6502 v 10.60362 63.62665 10.60365 h 21.2096 v -10.60365 -63.62665 -10.60362 z m -389.1564,26.6007 v 10.60365 63.62425 10.60365 h 21.2097 v -10.60365 -63.62425 -10.60365 z m 389.1564,100.65017 v 10.60365 45.61685 h -7.4037 v 21.2073 h 10.6037 7.406 a 10.605279,10.605279 0 0 0 10.6036,-10.60365 v -56.2205 -10.60365 z m -389.1564,26.59834 v 10.60601 19.01615 10.60365 10.60365 h 10.6037 10.606 53.0205 10.6037 v -21.2073 h -10.6037 -53.0205 v -19.01615 -10.60601 z m 127.2508,29.62216 v 21.2073 h 10.6037 63.6266 10.6036 v -21.2073 h -10.6036 -63.6266 z m 127.251,0 v 21.2073 h 10.6036 63.6265 10.6037 v -21.2073 h -10.6037 -63.6265 z"
                           id="path14" /><g
                           id="rect840"
                           transform="matrix(1.2180988,0,0,-1.2180988,-405.71267,-84.680305)"
                           style="fill:#000000;fill-opacity:1;stroke:none"><path
                             style="color:#000000;fill:#000000;fill-opacity:1;stroke:none;stroke-width:19.9454;stroke-linecap:square;stroke-linejoin:round;stroke-miterlimit:10;-inkscape-stroke:none"
                             d="m 1766.2111,-484.88229 h 133.3272 v 94.78734 h -133.3272 z"
                             id="path856" /><path
                             style="color:#000000;fill:#000000;fill-opacity:1;stroke:none;stroke-linecap:square;stroke-linejoin:round;stroke-miterlimit:10;-inkscape-stroke:none"
                             d="m 1766.2109,-494.85547 a 9.9736879,9.9736879 0 0 0 -9.9726,9.97266 v 94.78711 a 9.9736879,9.9736879 0 0 0 9.9726,9.97265 h 133.3282 a 9.9736879,9.9736879 0 0 0 9.9726,-9.97265 v -94.78711 a 9.9736879,9.9736879 0 0 0 -9.9726,-9.97266 z m 9.9727,19.94531 h 113.3828 v 74.8418 h -113.3828 z"
                             id="path858" /></g><g
                           id="rect842"
                           transform="matrix(1.2180988,0,0,-1.2180988,-405.71267,-84.680305)"
                           style="fill:#000000;fill-opacity:1;stroke:none"><path
                             style="color:#000000;fill:#000000;fill-opacity:1;stroke:none;stroke-width:19.9454;stroke-linecap:square;stroke-linejoin:round;stroke-miterlimit:10;-inkscape-stroke:none"
                             d="m 1807.8759,-351.55502 h 166.659 v 82.28791 h -166.659 z"
                             id="path850" /><path
                             style="color:#000000;fill:#000000;fill-opacity:1;stroke:none;stroke-linecap:square;stroke-linejoin:round;stroke-miterlimit:10;-inkscape-stroke:none"
                             d="m 1807.875,-361.52734 a 9.9736879,9.9736879 0 0 0 -9.9727,9.97265 v 82.28711 a 9.9736879,9.9736879 0 0 0 9.9727,9.97266 h 166.6602 a 9.9736879,9.9736879 0 0 0 9.9726,-9.97266 v -82.28711 a 9.9736879,9.9736879 0 0 0 -9.9726,-9.97265 z m 9.9727,19.94531 h 146.7148 v 62.3418 h -146.7148 z"
                             id="path852" /></g></g></g></g></g></g></g></g></g></g></g><g
       id="g32"><g
         id="g34"
         clip-path="url(#clipPath36)"><g
           id="g40"
           transform="scale(0.12)" /></g></g></g></svg>
