<?xml version="1.0" encoding="UTF-8" standalone="no"?>
<svg
   width="16"
   height="16"
   fill="currentColor"
   class="bi bi-code-square"
   viewBox="0 0 16 16"
   version="1.1"
   id="svg6"
   sodipodi:docname="code-square.svg"
   inkscape:version="1.1.2 (0a00cf5339, 2022-02-04)"
   xmlns:inkscape="http://www.inkscape.org/namespaces/inkscape"
   xmlns:sodipodi="http://sodipodi.sourceforge.net/DTD/sodipodi-0.dtd"
   xmlns="http://www.w3.org/2000/svg"
   xmlns:svg="http://www.w3.org/2000/svg">
  <defs
     id="defs10" />
  <sodipodi:namedview
     id="namedview8"
     pagecolor="#ffffff"
     bordercolor="#666666"
     borderopacity="1.0"
     inkscape:pageshadow="2"
     inkscape:pageopacity="0.0"
     inkscape:pagecheckerboard="0"
     showgrid="false"
     inkscape:zoom="46.5625"
     inkscape:cx="8"
     inkscape:cy="7.9892617"
     inkscape:window-width="1846"
     inkscape:window-height="1016"
     inkscape:window-x="0"
     inkscape:window-y="0"
     inkscape:window-maximized="1"
     inkscape:current-layer="svg6" />
  <g
     transform="translate(-163.1358,-195)"
     id="g1060"
     inkscape:label="">
    <title
       id="title1412">completion-word</title>
    <rect
       style="fill:none"
       id="rect1056"
       width="16"
       height="16"
       x="163.1358"
       y="195" />
    <path
       style="color:#000000;font-style:normal;font-variant:normal;font-weight:normal;font-stretch:normal;font-size:medium;line-height:normal;font-family:sans-serif;font-variant-ligatures:normal;font-variant-position:normal;font-variant-caps:normal;font-variant-numeric:normal;font-variant-alternates:normal;font-variant-east-asian:normal;font-feature-settings:normal;font-variation-settings:normal;text-indent:0;text-align:start;text-decoration:none;text-decoration-line:none;text-decoration-style:solid;text-decoration-color:#000000;letter-spacing:normal;word-spacing:normal;text-transform:none;writing-mode:lr-tb;direction:ltr;text-orientation:mixed;dominant-baseline:auto;baseline-shift:baseline;text-anchor:start;white-space:normal;shape-padding:0;shape-margin:0;inline-size:0;clip-rule:nonzero;display:inline;overflow:visible;visibility:visible;opacity:1;isolation:auto;mix-blend-mode:normal;color-interpolation:sRGB;color-interpolation-filters:linearRGB;solid-color:#000000;solid-opacity:1;vector-effect:none;fill:#2e3436;fill-opacity:1;fill-rule:nonzero;stroke:none;stroke-linecap:butt;stroke-linejoin:miter;stroke-miterlimit:4;stroke-dasharray:none;stroke-dashoffset:0;stroke-opacity:1;color-rendering:auto;image-rendering:auto;shape-rendering:auto;text-rendering:auto;enable-background:accumulate;stop-color:#000000;stop-opacity:1"
       d="m 167.14453,198 -0.0176,2 6.00586,0.0469 h 0.004 c 0.39999,0 0.94072,0.24209 1.35156,0.64843 0.41084,0.40634 0.64844,0.93883 0.64844,1.30469 v 0.0469 h -7 c -0.81747,0 -1.53509,0.36267 -2.07227,0.88281 -0.53718,0.52013 -0.92773,1.23698 -0.92773,2.07031 v 1 c 0,0.83333 0.37904,1.55177 0.90625,2.0957 0.52721,0.54394 1.24455,0.95117 2.09375,0.95118 h 9 V 202 c 0,-1.07045 -0.52353,-2.01578 -1.24219,-2.72656 -0.71866,-0.71079 -1.67581,-1.22656 -2.75781,-1.22656 z m 0.99219,6.04688 h 7 v 3 h -7 c -0.1508,0 -0.43541,-0.1139 -0.6582,-0.34376 -0.22279,-0.22985 -0.3418,-0.53645 -0.3418,-0.70312 v -1 c 0,-0.16667 0.10749,-0.42674 0.32031,-0.63281 0.21282,-0.20607 0.49716,-0.32032 0.67969,-0.32031 z"
       id="path1062" />
  </g>
</svg>
