<?xml version="1.0" encoding="UTF-8" standalone="no"?>
<svg
   width="40"
   height="40"
   fill="currentColor"
   class="bi bi-textarea-t"
   viewBox="0 0 40 40"
   version="1.1"
   id="svg6"
   sodipodi:docname="display-text1.svg"
   inkscape:version="1.1.2 (0a00cf5339, 2022-02-04)"
   xmlns:inkscape="http://www.inkscape.org/namespaces/inkscape"
   xmlns:sodipodi="http://sodipodi.sourceforge.net/DTD/sodipodi-0.dtd"
   xmlns="http://www.w3.org/2000/svg"
   xmlns:svg="http://www.w3.org/2000/svg">
  <defs
     id="defs10" />
  <sodipodi:namedview
     id="namedview8"
     pagecolor="#ffffff"
     bordercolor="#666666"
     borderopacity="1.0"
     inkscape:pageshadow="2"
     inkscape:pageopacity="0.0"
     inkscape:pagecheckerboard="0"
     showgrid="false"
     inkscape:zoom="8.2311649"
     inkscape:cx="-3.3409609"
     inkscape:cy="18.95236"
     inkscape:window-width="1846"
     inkscape:window-height="1016"
     inkscape:window-x="0"
     inkscape:window-y="0"
     inkscape:window-maximized="1"
     inkscape:current-layer="svg6" />
  <g
     aria-label="Aa"
     id="text10498"
     style="font-size:24px;line-height:1.25;font-family:'Comic Sans MS';-inkscape-font-specification:'Comic Sans MS'">
    <path
       d="m 19.515023,26.78 q 0,0.72 -0.78,0.72 -0.52,0 -0.69,-0.51 l -1.33,-3.99 h -4.92 l -1.33,3.99 q -0.17,0.51 -0.69,0.51 -0.78,0 -0.78,-0.72 0,-0.13 0.05,-0.27 l 4.46,-13.38 q 0.21,-0.63 0.75,-0.63 0.54,0 0.75,0.63 l 4.46,13.38 q 0.05,0.14 0.05,0.27 z m -3.3,-5.28 -1.96,-5.88 -1.96,5.88 z"
       style="font-family:monofur;-inkscape-font-specification:monofur"
       id="path21313" />
    <path
       d="m 31.004977,26.75 q 0,0.75 -0.75,0.75 -0.77,0 -0.75,-1.06 -1.48,1.06 -3.5,1.06 -1.85,0 -3.31,-0.93 -1.69,-1.08 -1.69,-2.82 0,-1.74 1.69,-2.82 1.47,-0.93 3.31,-0.93 2.02,0 3.5,1.06 v -0.31 q 0,-0.44 -0.31,-0.89 -0.92,-1.36 -3.19,-1.36 -1.3,0 -2.57,0.74 -0.26,0.15 -0.45,0.15 -0.3,0 -0.53,-0.23 -0.22,-0.24 -0.22,-0.55 0,-0.74 1.57,-1.23 1.22,-0.38 2.2,-0.38 1.84,0 3.31,0.93 1.69,1.08 1.69,2.82 z m -1.5,-3 q 0,-0.71 -0.68,-1.31 -0.57,-0.5 -1.35,-0.73 -0.68,-0.21 -1.47,-0.21 -2.32,0 -3.23,1.42 -0.27,0.42 -0.27,0.83 0,0.41 0.27,0.83 0.91,1.42 3.23,1.42 0.79,0 1.47,-0.21 0.78,-0.23 1.35,-0.73 0.68,-0.6 0.68,-1.31 z"
       style="font-family:monofur;-inkscape-font-specification:monofur"
       id="path21315" />
  </g>
  <g
     id="g21301"
     transform="translate(-1.8262957,-1.5317235)">
    <path
       style="color:#000000;fill:#000000;-inkscape-stroke:none"
       d="m 30.617187,8.3535156 v 1.5 h 5.527344 v 5.5429684 h 1.5 V 8.3535156 Z"
       id="path12725" />
    <path
       style="color:#000000;fill:#000000;-inkscape-stroke:none"
       d="m 6.0078125,8.3535156 v 7.0429684 h 1.5 V 9.8535156 h 5.5273435 v -1.5 z"
       id="path12725-3" />
    <path
       style="color:#000000;fill:#000000;-inkscape-stroke:none"
       d="m 36.144531,27.667969 v 5.541015 h -5.527344 v 1.5 h 7.027344 v -7.041015 z"
       id="path12725-6" />
    <path
       style="color:#000000;fill:#000000;-inkscape-stroke:none"
       d="m 6.0078125,27.667969 v 7.041015 h 7.0273435 v -1.5 H 7.5078125 v -5.541015 z"
       id="path12725-3-7" />
  </g>
</svg>
