<?xml version="1.0" encoding="UTF-8" standalone="no"?>
<svg
   width="16"
   height="16"
   fill="currentColor"
   class="bi bi-hash"
   viewBox="0 0 16 16"
   version="1.1"
   id="svg4"
   sodipodi:docname="hash-symbolic.svg"
   inkscape:version="1.1.2 (0a00cf5339, 2022-02-04)"
   xmlns:inkscape="http://www.inkscape.org/namespaces/inkscape"
   xmlns:sodipodi="http://sodipodi.sourceforge.net/DTD/sodipodi-0.dtd"
   xmlns="http://www.w3.org/2000/svg"
   xmlns:svg="http://www.w3.org/2000/svg">
  <defs
     id="defs8" />
  <sodipodi:namedview
     id="namedview6"
     pagecolor="#ffffff"
     bordercolor="#666666"
     borderopacity="1.0"
     inkscape:pageshadow="2"
     inkscape:pageopacity="0.0"
     inkscape:pagecheckerboard="0"
     showgrid="false"
     inkscape:zoom="46.5625"
     inkscape:cx="8"
     inkscape:cy="7.9892617"
     inkscape:window-width="1846"
     inkscape:window-height="1016"
     inkscape:window-x="0"
     inkscape:window-y="0"
     inkscape:window-maximized="1"
     inkscape:current-layer="svg4" />
  <path
     d="m 8.1122654,13.966527 a 1.6650569,1.6650569 0 0 0 -0.018921,0.227054 c 0,0.38473 0.2648953,0.640795 0.6307033,0.640795 0.3355343,0 0.6206113,-0.216962 0.7000808,-0.601692 l 0.6988185,-3.409582 h 1.518734 c 0.531052,0 0.778288,-0.295169 0.778288,-0.689989 0,-0.3935585 -0.237144,-0.6685451 -0.778288,-0.6685451 h -1.242485 l 0.650886,-3.1837906 h 1.595679 c 0.542405,0 0.779549,-0.2863394 0.779549,-0.6899895 0,-0.3948203 -0.237144,-0.6609772 -0.779549,-0.6609772 h -1.319432 l 0.60043,-2.906281 A 1.3370911,1.3370911 0 0 0 11.946941,1.8166589 0.64331742,0.64331742 0 0 0 11.296056,1.1657731 0.68115963,0.68115963 0 0 0 10.616158,1.7081779 L 9.9564421,4.9298106 H 7.137198 L 7.738889,2.0235296 C 7.748975,1.9730736 7.75781,1.8746836 7.75781,1.8166589 A 0.64584024,0.64584024 0 0 0 7.0980944,1.1657731 0.67989822,0.67989822 0 0 0 6.4282875,1.7081779 L 5.7660489,4.9298106 H 4.358319 c -0.5424049,0 -0.7782879,0.2775096 -0.7782879,0.6710685 0,0.3935588 0.235883,0.6798982 0.7782879,0.6798982 H 5.5011535 L 4.8515291,9.4633064 H 3.3428867 c -0.5310523,0 -0.7681968,0.2762481 -0.7681968,0.6698066 0,0.39482 0.2371445,0.689989 0.7694581,0.689989 h 1.231133 l -0.6508859,3.143425 c -0.010086,0.05045 -0.018921,0.157676 -0.018921,0.227054 0,0.38473 0.2648955,0.640795 0.6307034,0.640795 0.3342727,0 0.6206121,-0.216962 0.6988194,-0.601692 L 5.9350774,10.823102 H 8.7631513 L 8.1135268,13.966527 Z M 6.8508587,6.2605948 H 9.7092061 L 9.0595819,9.4935802 H 6.1810517 L 6.8521201,6.2605948 Z"
     id="path2"
     style="stroke-width:1.26141" />
</svg>
