<?xml version="1.0" encoding="UTF-8" standalone="no"?>
<!-- Created with Inkscape (http://www.inkscape.org/) -->

<svg
   xmlns:dc="http://purl.org/dc/elements/1.1/"
   xmlns:cc="http://creativecommons.org/ns#"
   xmlns:rdf="http://www.w3.org/1999/02/22-rdf-syntax-ns#"
   xmlns:svg="http://www.w3.org/2000/svg"
   xmlns="http://www.w3.org/2000/svg"
   xmlns:sodipodi="http://sodipodi.sourceforge.net/DTD/sodipodi-0.dtd"
   xmlns:inkscape="http://www.inkscape.org/namespaces/inkscape"
   id="svg2"
   version="1.1"
   inkscape:version="0.92.5 (2060ec1f9f, 2020-04-08)"
   xml:space="preserve"
   width="32"
   height="32"
   viewBox="0 0 32 32"
   sodipodi:docname="motor.svg"
   inkscape:export-filename="/home/cpwd/Documents/electricdesign/electricdesign/element_library/1.svg.png"
   inkscape:export-xdpi="11.52"
   inkscape:export-ydpi="11.52"><metadata
     id="metadata8"><rdf:RDF><cc:Work
         rdf:about=""><dc:format>image/svg+xml</dc:format><dc:type
           rdf:resource="http://purl.org/dc/dcmitype/StillImage" /><dc:title /></cc:Work></rdf:RDF></metadata><defs
     id="defs6"><clipPath
       clipPathUnits="userSpaceOnUse"
       id="clipPath16"><path
         d="M 0,0 H 1191 V 842 H 0 Z"
         id="path18"
         inkscape:connector-curvature="0" /></clipPath><clipPath
       clipPathUnits="userSpaceOnUse"
       id="clipPath36"><path
         d="M 0,0 H 1191 V 842 H 0 Z"
         id="path38"
         inkscape:connector-curvature="0" /></clipPath></defs><sodipodi:namedview
     pagecolor="#ffffff"
     bordercolor="#666666"
     borderopacity="1"
     objecttolerance="10"
     gridtolerance="10"
     guidetolerance="10"
     inkscape:pageopacity="0"
     inkscape:pageshadow="2"
     inkscape:window-width="1920"
     inkscape:window-height="1007"
     id="namedview4"
     showgrid="false"
     fit-margin-top="20"
     fit-margin-left="20"
     fit-margin-right="20"
     fit-margin-bottom="20"
     inkscape:zoom="8.4911594"
     inkscape:cx="21.073634"
     inkscape:cy="-5.1068528"
     inkscape:window-x="0"
     inkscape:window-y="0"
     inkscape:window-maximized="1"
     inkscape:current-layer="g51" /><g
     id="g10"
     inkscape:groupmode="layer"
     inkscape:label="1"
     transform="matrix(1.25,0,0,-1.25,-683.64159,73.583563)"><g
       id="g12"
       style="fill:#000000;stroke:#000000;stroke-width:21.66941833;stroke-miterlimit:4;stroke-dasharray:none;stroke-opacity:1"
       transform="matrix(0.92295969,0,0,0.92295969,336.62949,3.3268985)"><g
         id="g14"
         clip-path="url(#clipPath16)"
         style="fill:#000000;stroke:#000000;stroke-width:21.66941833;stroke-miterlimit:4;stroke-dasharray:none;stroke-opacity:1"><g
           id="g20"
           transform="scale(0.12)"
           style="fill:#000000;stroke:#000000;stroke-width:180.57849121;stroke-miterlimit:4;stroke-dasharray:none;stroke-opacity:1"><g
             id="g49"
             transform="matrix(0.41485838,0,0,0.41485838,1214.4661,188.3424)"><g
               id="g855"
               transform="translate(-0.63227499,7.0717434)"><g
                 id="g865"
                 transform="translate(-12.315239,9.367144)"><g
                   id="g51"
                   transform="translate(-4.9808105e-5,7.4782392)"><path
                     inkscape:connector-curvature="0"
                     id="path40"
                     style="fill:none;stroke:#000000;stroke-width:26.11664581;stroke-linecap:butt;stroke-linejoin:miter;stroke-miterlimit:10;stroke-dasharray:none;stroke-opacity:1"
                     d="m 2170.0562,452.27766 c 0,-60.81045 -24.1503,-119.16477 -67.1945,-162.17074 -43.0059,-43.0442 -101.3603,-67.19445 -162.1707,-67.19445 -60.8105,0 -119.1648,24.15025 -162.1708,67.19445 -43.0442,43.00597 -67.1944,101.36029 -67.1944,162.17074 0,60.81044 24.1502,119.16479 67.1944,162.17079 43.006,43.0442 101.3603,67.1944 162.1708,67.1944 60.8104,0 119.1648,-24.1502 162.1707,-67.1944 43.0442,-43.006 67.1945,-101.36035 67.1945,-162.17079 z" /><g
                     aria-label="~"
                     transform="matrix(0.98614153,0,0,-0.75761293,10.430833,-11.987046)"
                     style="font-style:normal;font-weight:normal;font-size:348.22195435px;line-height:1.25;font-family:sans-serif;letter-spacing:0px;word-spacing:0px;fill:#000000;fill-opacity:1;stroke:none;stroke-width:3144.06958008"
                     id="text841"><g
                       aria-label="∿"
                       style="font-style:normal;font-weight:normal;font-size:264.8777771px;line-height:1.25;font-family:sans-serif;letter-spacing:0px;word-spacing:0px;fill:#000000;fill-opacity:1;stroke:none;stroke-width:41639.70703125"
                       id="text848"><path
                         d="m 2040.2902,-481.79606 q -15.9082,82.77431 -48.3713,82.77431 -29.747,0 -42.6805,-60.78739 -13.1921,-61.56339 -26.3843,-61.69272 -15.0028,0 -26.3843,61.69272 h -21.9869 q 15.9082,-82.7743 48.3712,-82.7743 29.747,0 42.6805,60.78738 13.1922,61.56339 26.3843,61.69272 15.0029,0 26.3844,-61.69272 z"
                         style="stroke-width:19.86583328;stroke-miterlimit:10;stroke-dasharray:none"
                         id="path850"
                         inkscape:connector-curvature="0" /></g></g><g
                     aria-label="M"
                     transform="scale(1,-1)"
                     style="font-style:normal;font-weight:normal;font-size:348.22195435px;line-height:1.25;font-family:sans-serif;letter-spacing:0px;word-spacing:0px;fill:#000000;fill-opacity:1;stroke:none;stroke-width:34.8221944;stroke-miterlimit:10;stroke-dasharray:none"
                     id="text832"><path
                       d="m 1868.0867,-455.45139 c 3.134,0 5.8501,-1.8804 6.4769,-5.22333 l 23.1916,-105.09338 33.6382,105.72018 c 0.8358,2.92507 3.343,4.59653 6.0591,4.59653 2.9251,0 5.4323,-1.67146 6.268,-4.17866 l 39.0705,-108.01845 23.8184,106.97378 c 0.6268,3.134 2.925,5.22333 6.4769,5.22333 3.7608,0 6.4769,-2.92506 6.4769,-5.85013 0,-1.67146 -0.4178,-3.76079 -1.0446,-5.85012 l -27.9971,-125.3599 c -0.6268,-3.134 -2.925,-5.22333 -5.8501,-5.22333 -2.9251,0 -5.6412,1.46253 -6.6859,4.17866 l -40.1151,110.94351 -34.8919,-110.73458 c -0.8357,-2.29826 -3.134,-4.38759 -6.268,-4.38759 -3.134,0 -5.8501,1.88039 -6.4769,5.22333 l -27.5792,125.98669 c -0.6268,2.08934 -0.8357,4.3876 -0.8357,5.22333 0,2.5072 2.0893,5.85013 6.268,5.85013 z"
                       style="font-style:normal;font-variant:normal;font-weight:normal;font-stretch:normal;font-size:208.9331665px;font-family:'Comic Neue';-inkscape-font-specification:'Comic Neue';stroke-width:8.7055486;stroke-miterlimit:10;stroke-dasharray:none;stroke:#000000;stroke-opacity:1"
                       id="path834" /></g></g></g></g></g></g></g></g><g
       id="g32"><g
         id="g34"
         clip-path="url(#clipPath36)"><g
           id="g40"
           transform="scale(0.12)" /></g></g></g></svg>