<?xml version="1.0" encoding="UTF-8" standalone="no"?>
<svg
   version="1.1"
   viewBox="0 0 16 16.003"
   id="svg6"
   sodipodi:docname="page-new-symbolic.svg"
   inkscape:version="1.1.2 (0a00cf5339, 2022-02-04)"
   xmlns:inkscape="http://www.inkscape.org/namespaces/inkscape"
   xmlns:sodipodi="http://sodipodi.sourceforge.net/DTD/sodipodi-0.dtd"
   xmlns="http://www.w3.org/2000/svg"
   xmlns:svg="http://www.w3.org/2000/svg">
  <defs
     id="defs10" />
  <sodipodi:namedview
     id="namedview8"
     pagecolor="#ffffff"
     bordercolor="#666666"
     borderopacity="1.0"
     inkscape:pageshadow="2"
     inkscape:pageopacity="0.0"
     inkscape:pagecheckerboard="0"
     showgrid="false"
     inkscape:zoom="46.55377"
     inkscape:cx="8.0015002"
     inkscape:cy="7.9907599"
     inkscape:window-width="1846"
     inkscape:window-height="1016"
     inkscape:window-x="0"
     inkscape:window-y="0"
     inkscape:window-maximized="1"
     inkscape:current-layer="svg6" />
  <g
     transform="translate(-152 -180)"
     id="g4"
     style="fill:#000000;fill-opacity:1">
    <path
       d="m157 180c-1.25 0-2.1748-0.0444-2.9297 0.375-0.37746 0.2097-0.67538 0.56341-0.84179 1.0039-0.16642 0.4405-0.22852 0.96276-0.22852 1.6211v10c0 0.65833 0.0621 1.1806 0.22852 1.6211 0.16641 0.4405 0.46433 0.79421 0.84179 1.0039 0.75493 0.4194 1.6797 0.375 2.9297 0.375h5v-1h-5c-1.25 0-2.0752-0.0444-2.4453-0.25-0.18504-0.1028-0.29337-0.21784-0.39258-0.48047-0.09921-0.26262-0.16211-0.67786-0.16211-1.2695v-10c0-0.59167 0.0629-1.0069 0.16211-1.2695 0.0992-0.26263 0.20754-0.37767 0.39258-0.48047 0.37007-0.2056 1.1953-0.25 2.4453-0.25h5v4h4v5h1v-5.75l-4.25-4.25zm8 11v2h-2v1h2v2h1v-2h2v-1h-2v-2z"
       color="#000000"
       color-rendering="auto"
       fill="#808080"
       image-rendering="auto"
       shape-rendering="auto"
       solid-color="#000000"
       style="isolation:auto;mix-blend-mode:normal;text-decoration-color:#000000;text-decoration-line:none;text-decoration-style:solid;text-indent:0;text-transform:none;white-space:normal;fill:#000000;fill-opacity:1"
       id="path2" />
  </g>
</svg>
