<?xml version="1.0" encoding="UTF-8" standalone="no"?>
<svg
   version="1.1"
   viewBox="0 0 16 16.003"
   id="svg6"
   sodipodi:docname="page-remove.svg"
   inkscape:version="1.1.2 (0a00cf5339, 2022-02-04)"
   xmlns:inkscape="http://www.inkscape.org/namespaces/inkscape"
   xmlns:sodipodi="http://sodipodi.sourceforge.net/DTD/sodipodi-0.dtd"
   xmlns="http://www.w3.org/2000/svg"
   xmlns:svg="http://www.w3.org/2000/svg">
  <defs
     id="defs10" />
  <sodipodi:namedview
     id="namedview8"
     pagecolor="#ffffff"
     bordercolor="#666666"
     borderopacity="1.0"
     inkscape:pageshadow="2"
     inkscape:pageopacity="0.0"
     inkscape:pagecheckerboard="0"
     showgrid="false"
     inkscape:zoom="32"
     inkscape:cx="8.796875"
     inkscape:cy="8.875"
     inkscape:window-width="1846"
     inkscape:window-height="1016"
     inkscape:window-x="0"
     inkscape:window-y="0"
     inkscape:window-maximized="1"
     inkscape:current-layer="g4" />
  <g
     transform="translate(-152 -180)"
     id="g4"
     style="fill:#000000">
    <path
       d="m 157,180 c -1.25,0 -2.1748,-0.0444 -2.9297,0.375 -0.37746,0.2097 -0.67538,0.56341 -0.84179,1.0039 -0.16642,0.4405 -0.22852,0.96276 -0.22852,1.6211 v 10 c 0,0.65833 0.0621,1.1806 0.22852,1.6211 0.16641,0.4405 0.46433,0.79421 0.84179,1.0039 C 154.82523,196.0444 155.75,196 157,196 l 6.07972,0.002 -0.0494,-1.002 H 157 c -1.25,0 -2.0752,-0.0444 -2.4453,-0.25 -0.18504,-0.1028 -0.29337,-0.21784 -0.39258,-0.48047 -0.0992,-0.26262 -0.16211,-0.67786 -0.16211,-1.2695 v -10 c 0,-0.59167 0.0629,-1.0069 0.16211,-1.2695 0.0992,-0.26263 0.20754,-0.37767 0.39258,-0.48047 0.37007,-0.2056 1.1953,-0.25 2.4453,-0.25 h 5 v 4 h 4 v 8.09143 l 1,-0.0158 v -8.8256 l -4.25,-4.25 z"
       color="#000000"
       color-rendering="auto"
       fill="#808080"
       image-rendering="auto"
       shape-rendering="auto"
       solid-color="#000000"
       style="text-indent:0;text-decoration-line:none;text-decoration-style:solid;text-decoration-color:#000000;text-transform:none;white-space:normal;isolation:auto;mix-blend-mode:normal;fill:#000000"
       id="path2"
       sodipodi:nodetypes="cccssccsccsccssccscccccccc" />
    <path
       d="m 167.00348,193.00247 c 0,0.65833 -0.0621,1.1806 -0.22852,1.6211 -0.16641,0.4405 -0.46433,0.79421 -0.84179,1.0039 -0.75493,0.4194 -1.6797,0.375 -2.9297,0.375 v -1 c 1.25,0 2.0752,-0.0444 2.4453,-0.25 0.18504,-0.1028 0.29337,-0.21784 0.39258,-0.48047 0.0992,-0.26262 0.16211,-0.67786 0.16211,-1.2695"
       style="color:#000000;text-indent:0;text-decoration-line:none;text-decoration-style:solid;text-decoration-color:#000000;text-transform:none;white-space:normal;isolation:auto;mix-blend-mode:normal;solid-color:#000000;fill:#000000;color-rendering:auto;image-rendering:auto;shape-rendering:auto"
       id="path1245" />
    <g
       id="g2687"
       transform="matrix(1.0704579,0,0,1.0704579,-11.273264,-11.463057)">
      <path
         style="fill:none;stroke:#000000;stroke-width:0.665175;stroke-linecap:butt;stroke-linejoin:miter;stroke-miterlimit:4;stroke-dasharray:none;stroke-opacity:1"
         d="m 157.15734,185.15884 5.68532,5.68532"
         id="path2385" />
      <path
         style="fill:none;stroke:#000000;stroke-width:0.665175;stroke-linecap:butt;stroke-linejoin:miter;stroke-miterlimit:4;stroke-dasharray:none;stroke-opacity:1"
         d="m 162.84266,185.15884 -5.68532,5.68532"
         id="path2385-3" />
    </g>
  </g>
</svg>
