<?xml version="1.0" encoding="UTF-8" standalone="no"?>
<svg
   width="16"
   height="16"
   fill="currentColor"
   class="bi bi-box-arrow-in-left"
   viewBox="0 0 16 16"
   version="1.1"
   id="svg6"
   sodipodi:docname="pane-left.svg"
   inkscape:version="1.1.2 (0a00cf5339, 2022-02-04)"
   xmlns:inkscape="http://www.inkscape.org/namespaces/inkscape"
   xmlns:sodipodi="http://sodipodi.sourceforge.net/DTD/sodipodi-0.dtd"
   xmlns="http://www.w3.org/2000/svg"
   xmlns:svg="http://www.w3.org/2000/svg">
  <defs
     id="defs10" />
  <sodipodi:namedview
     id="namedview8"
     pagecolor="#ffffff"
     bordercolor="#666666"
     borderopacity="1.0"
     inkscape:pageshadow="2"
     inkscape:pageopacity="0.0"
     inkscape:pagecheckerboard="0"
     showgrid="false"
     inkscape:zoom="46.5625"
     inkscape:cx="8"
     inkscape:cy="7.9892617"
     inkscape:window-width="1846"
     inkscape:window-height="1016"
     inkscape:window-x="0"
     inkscape:window-y="0"
     inkscape:window-maximized="1"
     inkscape:current-layer="svg6" />
  <g
     transform="matrix(0,1,1,0,-296.00001,-19.99975)"
     inkscape:label=""
     id="g8524">
    <title
       id="title1406">builder-view-left-pane</title>
    <rect
       style="color:#bebebe;overflow:visible;fill:none;stroke-width:2;marker:none"
       id="rect8526"
       width="16"
       height="16"
       x="19.99975"
       y="296" />
    <g
       id="g2319"
       transform="translate(6.6406596,4.0811557)">
      <g
         id="layer1-3"
         transform="matrix(0,3.7795275,3.7795275,0,-1281.2058,462.77605)"
         style="display:inline;fill:#3584e4">
        <rect
           transform="matrix(0,-1,-1,0,0,0)"
           style="color:#bebebe;display:inline;overflow:visible;visibility:visible;opacity:1;fill:#2e3436;fill-opacity:0.35;stroke:none;stroke-width:0.264583;marker:none"
           id="rect10511"
           width="3.1750002"
           height="1.3229166"
           x="-346.22159"
           y="43.486164" />
      </g>
      <path
         style="color:#000000;display:inline;fill:#2e3436;stroke-linecap:square;stroke-linejoin:round;enable-background:new"
         d="m 14.348272,294.91887 c 0,-1.6447 1.3553,-3 3,-3 h 8 c 1.6447,0 3,1.3553 3,3 v 10 c 0,1.6447 -1.3553,3 -3,3 h -8 c -1.6447,0 -3,-1.3553 -3,-3 z m 2,0 v 10 c 0,0.5713 0.4287,1 1,1 h 8 c 0.5713,0 1,-0.4287 1,-1 v -10 c 0,-0.5713 -0.4287,-1 -1,-1 h -8 c -0.5713,0 -1,0.4287 -1,1 z"
         id="path130646-6"
         sodipodi:nodetypes="ssssssssssssssssss" />
      <rect
         style="display:inline;fill:#2e3436;fill-opacity:1;stroke:none;stroke-width:2;stroke-linecap:butt;stroke-linejoin:round;stroke-dashoffset:26.4;stroke-opacity:1"
         id="rect29147"
         width="1"
         height="12"
         x="297.91888"
         y="15.348271"
         transform="matrix(0,1,1,0,0,0)" />
    </g>
  </g>
</svg>
