<?xml version="1.0" encoding="UTF-8" standalone="no"?>
<svg
   width="16"
   height="16"
   fill="currentColor"
   class="bi bi-box-arrow-in-right"
   viewBox="0 0 16 16"
   version="1.1"
   id="svg6"
   sodipodi:docname="pane-right-symbolic.svg"
   inkscape:version="1.1.2 (0a00cf5339, 2022-02-04)"
   xmlns:inkscape="http://www.inkscape.org/namespaces/inkscape"
   xmlns:sodipodi="http://sodipodi.sourceforge.net/DTD/sodipodi-0.dtd"
   xmlns="http://www.w3.org/2000/svg"
   xmlns:svg="http://www.w3.org/2000/svg">
  <defs
     id="defs10" />
  <sodipodi:namedview
     id="namedview8"
     pagecolor="#ffffff"
     bordercolor="#666666"
     borderopacity="1.0"
     inkscape:pageshadow="2"
     inkscape:pageopacity="0.0"
     inkscape:pagecheckerboard="0"
     showgrid="false"
     inkscape:zoom="46.5625"
     inkscape:cx="8"
     inkscape:cy="7.9892617"
     inkscape:window-width="1846"
     inkscape:window-height="1016"
     inkscape:window-x="0"
     inkscape:window-y="0"
     inkscape:window-maximized="1"
     inkscape:current-layer="g2600" />
  <g
     id="g8514"
     inkscape:label=""
     transform="matrix(0,-1,-1,0,311.99997,35.99975)"
     style="fill:#000000;fill-opacity:1">
    <title
       id="title1408">builder-view-right-pane</title>
    <g
       id="g2600"
       transform="matrix(1,0,0,-1,-4.0000166,612.9999)"
       style="fill:#000000;fill-opacity:1">
      <g
         id="layer1-3-7"
         transform="matrix(0,-3.7795275,-3.7795275,0,1334.5646,146.14277)"
         style="display:inline;fill:#000000;fill-opacity:0.50196081">
        <rect
           transform="matrix(0,-1,-1,0,0,0)"
           style="color:#bebebe;display:inline;overflow:visible;visibility:visible;opacity:1;fill:#000000;fill-opacity:0.50196081;stroke:none;stroke-width:0.264583;marker:none"
           id="rect850"
           width="3.1750002"
           height="1.3229166"
           x="-346.22159"
           y="43.486164" />
      </g>
      <path
         style="color:#000000;display:inline;fill:#000000;stroke-linecap:square;stroke-linejoin:round;enable-background:new;fill-opacity:1"
         d="m 39.01057,313.99995 c 0,1.6447 -1.3553,3 -3,3 h -8 c -1.6447,0 -3,-1.3553 -3,-3 v -10 c 0,-1.6447 1.3553,-3 3,-3 h 8 c 1.6447,0 3,1.3553 3,3 z m -2,0 v -10 c 0,-0.5713 -0.4287,-1 -1,-1 h -8 c -0.5713,0 -1,0.4287 -1,1 v 10 c 0,0.5713 0.4287,1 1,1 h 8 c 0.5713,0 1,-0.4287 1,-1 z"
         id="path847"
         sodipodi:nodetypes="ssssssssssssssssss" />
      <rect
         style="display:inline;fill:#000000;fill-opacity:1;stroke:none;stroke-width:2;stroke-linecap:butt;stroke-linejoin:round;stroke-dashoffset:26.4;stroke-opacity:1"
         id="rect844"
         width="1"
         height="12"
         x="-310.99994"
         y="-38.010571"
         transform="matrix(0,-1,-1,0,0,0)" />
    </g>
  </g>
</svg>
