<?xml version="1.0" encoding="UTF-8" standalone="no"?>
<!-- Created with Inkscape (http://www.inkscape.org/) -->

<svg
   version="1.1"
   id="svg2"
   xml:space="preserve"
   width="694.34698"
   height="862.28094"
   viewBox="0 0 694.34699 862.28097"
   sodipodi:docname="Fuse ABB HT.svg"
   inkscape:version="1.1.2 (0a00cf5339, 2022-02-04)"
   xmlns:inkscape="http://www.inkscape.org/namespaces/inkscape"
   xmlns:sodipodi="http://sodipodi.sourceforge.net/DTD/sodipodi-0.dtd"
   xmlns="http://www.w3.org/2000/svg"
   xmlns:svg="http://www.w3.org/2000/svg"><defs
     id="defs6"><clipPath
       clipPathUnits="userSpaceOnUse"
       id="clipPath18"><path
         d="M 0,858.898 H 612.283 V 0 H 0 Z"
         id="path16" /></clipPath><clipPath
       clipPathUnits="userSpaceOnUse"
       id="clipPath330"><path
         d="M 52.158,132.538 H 562.509 V 769.697 H 52.158 Z"
         id="path328" /></clipPath></defs><sodipodi:namedview
     id="namedview4"
     pagecolor="#ffffff"
     bordercolor="#666666"
     borderopacity="1.0"
     inkscape:pageshadow="2"
     inkscape:pageopacity="0.0"
     inkscape:pagecheckerboard="0"
     showgrid="false"
     fit-margin-top="10"
     lock-margins="true"
     fit-margin-left="10"
     fit-margin-right="10"
     fit-margin-bottom="10"
     inkscape:zoom="0.65054294"
     inkscape:cx="209.05615"
     inkscape:cy="491.89681"
     inkscape:window-width="1846"
     inkscape:window-height="1016"
     inkscape:window-x="0"
     inkscape:window-y="0"
     inkscape:window-maximized="1"
     inkscape:current-layer="g8" /><g
     id="g8"
     inkscape:groupmode="layer"
     inkscape:label="CA_MV_Fuses(EN)E_2401PL1613"
     transform="matrix(1.3333333,0,0,-1.3333333,-63.562594,1032.2432)"><g
       id="g28"
       transform="translate(82.742,762.0438)"><path
         d="M 0,0 H 469.01"
         style="fill:none;stroke:#4f4c4d;stroke-width:0.496;stroke-linecap:butt;stroke-linejoin:miter;stroke-miterlimit:4;stroke-dasharray:none;stroke-opacity:1"
         id="path30" /></g><g
       id="g32"
       transform="translate(551.6019,761.9845)"><path
         d="M 0,0 V -607.329"
         style="fill:none;stroke:#4f4c4d;stroke-width:0.496;stroke-linecap:butt;stroke-linejoin:miter;stroke-miterlimit:4;stroke-dasharray:none;stroke-opacity:1"
         id="path34" /></g><g
       id="g36"
       transform="translate(544.7245,761.9845)"><path
         d="M 0,0 V -604.966"
         style="fill:none;stroke:#4f4c4d;stroke-width:0.496;stroke-linecap:butt;stroke-linejoin:miter;stroke-miterlimit:4;stroke-dasharray:none;stroke-opacity:1"
         id="path38" /></g><g
       id="g40"
       transform="translate(536.7386,761.9845)"><path
         d="M 0,0 V -604.966"
         style="fill:none;stroke:#4f4c4d;stroke-width:0.496;stroke-linecap:butt;stroke-linejoin:miter;stroke-miterlimit:4;stroke-dasharray:none;stroke-opacity:1"
         id="path42" /></g><g
       id="g44"
       transform="translate(527.5062,761.9845)"><path
         d="M 0,0 V -604.966"
         style="fill:none;stroke:#4f4c4d;stroke-width:0.496;stroke-linecap:butt;stroke-linejoin:miter;stroke-miterlimit:4;stroke-dasharray:none;stroke-opacity:1"
         id="path46" /></g><g
       id="g48"
       transform="translate(517.2584,762.0317)"><path
         d="M 0,0 V -605.017"
         style="fill:none;stroke:#4f4c4d;stroke-width:0.496;stroke-linecap:butt;stroke-linejoin:miter;stroke-miterlimit:4;stroke-dasharray:none;stroke-opacity:1"
         id="path50" /></g><g
       id="g52"
       transform="translate(504.916,762.0317)"><path
         d="M 0,0 V -604.948"
         style="fill:none;stroke:#231f20;stroke-width:0.31;stroke-linecap:butt;stroke-linejoin:miter;stroke-miterlimit:4;stroke-dasharray:none;stroke-opacity:1"
         id="path54" /></g><g
       id="g56"
       transform="translate(489.7222,762.0317)"><path
         d="M 0,0 V -604.948"
         style="fill:none;stroke:#4f4c4d;stroke-width:0.496;stroke-linecap:butt;stroke-linejoin:miter;stroke-miterlimit:4;stroke-dasharray:none;stroke-opacity:1"
         id="path58" /></g><g
       id="g60"
       transform="translate(470.218,762.0783)"><path
         d="M 0,0 V -604.925"
         style="fill:none;stroke:#4f4c4d;stroke-width:0.496;stroke-linecap:butt;stroke-linejoin:miter;stroke-miterlimit:4;stroke-dasharray:none;stroke-opacity:1"
         id="path62" /></g><g
       id="g64"
       transform="translate(443.0822,762.0783)"><path
         d="M 0,0 V -604.925"
         style="fill:none;stroke:#4f4c4d;stroke-width:0.496;stroke-linecap:butt;stroke-linejoin:miter;stroke-miterlimit:4;stroke-dasharray:none;stroke-opacity:1"
         id="path66" /></g><g
       id="g68"
       transform="translate(396.1821,762.0317)"><path
         d="M 0,0 V -607.376"
         style="fill:none;stroke:#4f4c4d;stroke-width:0.496;stroke-linecap:butt;stroke-linejoin:miter;stroke-miterlimit:4;stroke-dasharray:none;stroke-opacity:1"
         id="path70" /></g><g
       id="g72"
       transform="translate(389.1619,762.0317)"><path
         d="M 0,0 V -604.994"
         style="fill:none;stroke:#4f4c4d;stroke-width:0.496;stroke-linecap:butt;stroke-linejoin:miter;stroke-miterlimit:4;stroke-dasharray:none;stroke-opacity:1"
         id="path74" /></g><g
       id="g76"
       transform="translate(381.2015,762.0317)"><path
         d="M 0,0 V -604.994"
         style="fill:none;stroke:#4f4c4d;stroke-width:0.496;stroke-linecap:butt;stroke-linejoin:miter;stroke-miterlimit:4;stroke-dasharray:none;stroke-opacity:1"
         id="path78" /></g><g
       id="g80"
       transform="translate(372.1324,762.0317)"><path
         d="M 0,0 V -604.994"
         style="fill:none;stroke:#231f20;stroke-width:0.31;stroke-linecap:butt;stroke-linejoin:miter;stroke-miterlimit:4;stroke-dasharray:none;stroke-opacity:1"
         id="path82" /></g><g
       id="g84"
       transform="translate(361.6511,762.0081)"><path
         d="M 0,0 V -604.973"
         style="fill:none;stroke:#4f4c4d;stroke-width:0.496;stroke-linecap:butt;stroke-linejoin:miter;stroke-miterlimit:4;stroke-dasharray:none;stroke-opacity:1"
         id="path86" /></g><g
       id="g88"
       transform="translate(349.5434,762.0081)"><path
         d="M 0,0 V -604.973"
         style="fill:none;stroke:#4f4c4d;stroke-width:0.496;stroke-linecap:butt;stroke-linejoin:miter;stroke-miterlimit:4;stroke-dasharray:none;stroke-opacity:1"
         id="path90" /></g><g
       id="g92"
       transform="translate(334.3267,762.0081)"><path
         d="M 0,0 V -604.973"
         style="fill:none;stroke:#4f4c4d;stroke-width:0.496;stroke-linecap:butt;stroke-linejoin:miter;stroke-miterlimit:4;stroke-dasharray:none;stroke-opacity:1"
         id="path94" /></g><g
       id="g96"
       transform="translate(314.9652,762.0081)"><path
         d="M 0,0 V -604.854"
         style="fill:none;stroke:#4f4c4d;stroke-width:0.496;stroke-linecap:butt;stroke-linejoin:miter;stroke-miterlimit:4;stroke-dasharray:none;stroke-opacity:1"
         id="path98" /></g><g
       id="g100"
       transform="translate(287.8507,762.0081)"><path
         d="M 0,0 V -604.854"
         style="fill:none;stroke:#4f4c4d;stroke-width:0.496;stroke-linecap:butt;stroke-linejoin:miter;stroke-miterlimit:4;stroke-dasharray:none;stroke-opacity:1"
         id="path102" /></g><g
       id="g104"
       transform="translate(233.9323,762.0317)"><path
         d="M 0,0 V -604.992"
         style="fill:none;stroke:#4f4c4d;stroke-width:0.496;stroke-linecap:butt;stroke-linejoin:miter;stroke-miterlimit:4;stroke-dasharray:none;stroke-opacity:1"
         id="path106" /></g><g
       id="g108"
       transform="translate(225.971,762.0317)"><path
         d="M 0,0 V -604.992"
         style="fill:none;stroke:#4f4c4d;stroke-width:0.496;stroke-linecap:butt;stroke-linejoin:miter;stroke-miterlimit:4;stroke-dasharray:none;stroke-opacity:1"
         id="path110" /></g><g
       id="g112"
       transform="translate(216.7605,762.0173)"><path
         d="M 0,0 V -604.981"
         style="fill:none;stroke:#4f4c4d;stroke-width:0.496;stroke-linecap:butt;stroke-linejoin:miter;stroke-miterlimit:4;stroke-dasharray:none;stroke-opacity:1"
         id="path114" /></g><g
       id="g116"
       transform="translate(206.3954,761.97)"><path
         d="M 0,0 V -604.934"
         style="fill:none;stroke:#4f4c4d;stroke-width:0.496;stroke-linecap:butt;stroke-linejoin:miter;stroke-miterlimit:4;stroke-dasharray:none;stroke-opacity:1"
         id="path118" /></g><g
       id="g120"
       transform="translate(159.7554,761.9476)"><path
         d="M 0,0 V -604.911"
         style="fill:none;stroke:#4f4c4d;stroke-width:0.496;stroke-linecap:butt;stroke-linejoin:miter;stroke-miterlimit:4;stroke-dasharray:none;stroke-opacity:1"
         id="path122" /></g><g
       id="g124"
       transform="translate(194.1467,761.9942)"><path
         d="M 0,0 V -604.958"
         style="fill:none;stroke:#231f20;stroke-width:0.31;stroke-linecap:butt;stroke-linejoin:miter;stroke-miterlimit:4;stroke-dasharray:none;stroke-opacity:1"
         id="path126" /></g><g
       id="g128"
       transform="translate(178.93,762.0408)"><path
         d="M 0,0 V -605.004"
         style="fill:none;stroke:#231f20;stroke-width:0.31;stroke-linecap:butt;stroke-linejoin:miter;stroke-miterlimit:4;stroke-dasharray:none;stroke-opacity:1"
         id="path130" /></g><g
       id="g132"
       transform="translate(132.2428,761.9476)"><path
         d="M 0,0 V -604.844"
         style="fill:none;stroke:#231f20;stroke-width:0.31;stroke-linecap:butt;stroke-linejoin:miter;stroke-miterlimit:4;stroke-dasharray:none;stroke-opacity:1"
         id="path134" /></g><g
       id="g136"
       transform="translate(85.5792,761.9476)"><path
         d="M 0,0 V -607.999"
         style="fill:none;stroke:#231f20;stroke-width:0.805;stroke-linecap:butt;stroke-linejoin:miter;stroke-miterlimit:4;stroke-dasharray:none;stroke-opacity:1"
         id="path138" /></g><g
       id="g140"
       transform="translate(240.8108,762.0317)"><path
         d="M 0,0 V -607.376"
         style="fill:none;stroke:#231f20;stroke-width:0.31;stroke-linecap:butt;stroke-linejoin:miter;stroke-miterlimit:4;stroke-dasharray:none;stroke-opacity:1"
         id="path142" /></g><g
       id="g144"
       transform="translate(85.6071,756.1927)"><path
         d="M 0,0 H 466.145"
         style="fill:none;stroke:#4f4c4d;stroke-width:0.496;stroke-linecap:butt;stroke-linejoin:miter;stroke-miterlimit:4;stroke-dasharray:none;stroke-opacity:1"
         id="path146" /></g><g
       id="g148"
       transform="translate(85.6071,749.4635)"><path
         d="M 0,0 H 466.145"
         style="fill:none;stroke:#4f4c4d;stroke-width:0.496;stroke-linecap:butt;stroke-linejoin:miter;stroke-miterlimit:4;stroke-dasharray:none;stroke-opacity:1"
         id="path150" /></g><g
       id="g152"
       transform="translate(85.6071,742.7338)"><path
         d="M 0,0 H 466.145"
         style="fill:none;stroke:#4f4c4d;stroke-width:0.496;stroke-linecap:butt;stroke-linejoin:miter;stroke-miterlimit:4;stroke-dasharray:none;stroke-opacity:1"
         id="path154" /></g><g
       id="g156"
       transform="translate(85.6071,734.5428)"><path
         d="M 0,0 H 466.145"
         style="fill:none;stroke:#4f4c4d;stroke-width:0.496;stroke-linecap:butt;stroke-linejoin:miter;stroke-miterlimit:4;stroke-dasharray:none;stroke-opacity:1"
         id="path158" /></g><g
       id="g160"
       transform="translate(85.6071,725.1796)"><path
         d="M 0,0 H 466.145"
         style="fill:none;stroke:#4f4c4d;stroke-width:0.496;stroke-linecap:butt;stroke-linejoin:miter;stroke-miterlimit:4;stroke-dasharray:none;stroke-opacity:1"
         id="path162" /></g><g
       id="g164"
       transform="translate(85.6071,713.4761)"><path
         d="M 0,0 H 466.145"
         style="fill:none;stroke:#4f4c4d;stroke-width:0.496;stroke-linecap:butt;stroke-linejoin:miter;stroke-miterlimit:4;stroke-dasharray:none;stroke-opacity:1"
         id="path166" /></g><g
       id="g168"
       transform="translate(85.6071,698.5541)"><path
         d="M 0,0 H 466.145"
         style="fill:none;stroke:#4f4c4d;stroke-width:0.496;stroke-linecap:butt;stroke-linejoin:miter;stroke-miterlimit:4;stroke-dasharray:none;stroke-opacity:1"
         id="path170" /></g><g
       id="g172"
       transform="translate(85.6071,676.9029)"><path
         d="M 0,0 H 466.145"
         style="fill:none;stroke:#4f4c4d;stroke-width:0.496;stroke-linecap:butt;stroke-linejoin:miter;stroke-miterlimit:4;stroke-dasharray:none;stroke-opacity:1"
         id="path174" /></g><g
       id="g176"
       transform="translate(82.742,640.9155)"><path
         d="M 0,0 H 469.01"
         style="fill:none;stroke:#4f4c4d;stroke-width:0.496;stroke-linecap:butt;stroke-linejoin:miter;stroke-miterlimit:4;stroke-dasharray:none;stroke-opacity:1"
         id="path178" /></g><g
       id="g180"
       transform="translate(85.5871,635.356)"><path
         d="M 0,0 H 466.165"
         style="fill:none;stroke:#231f20;stroke-width:0.31;stroke-linecap:butt;stroke-linejoin:miter;stroke-miterlimit:4;stroke-dasharray:none;stroke-opacity:1"
         id="path182" /></g><g
       id="g184"
       transform="translate(85.5871,629.2119)"><path
         d="M 0,0 H 466.165"
         style="fill:none;stroke:#4f4c4d;stroke-width:0.496;stroke-linecap:butt;stroke-linejoin:miter;stroke-miterlimit:4;stroke-dasharray:none;stroke-opacity:1"
         id="path186" /></g><g
       id="g188"
       transform="translate(85.5871,621.8976)"><path
         d="M 0,0 H 466.165"
         style="fill:none;stroke:#4f4c4d;stroke-width:0.496;stroke-linecap:butt;stroke-linejoin:miter;stroke-miterlimit:4;stroke-dasharray:none;stroke-opacity:1"
         id="path190" /></g><g
       id="g192"
       transform="translate(85.5871,614.2899)"><path
         d="M 0,0 H 466.165"
         style="fill:none;stroke:#4f4c4d;stroke-width:0.496;stroke-linecap:butt;stroke-linejoin:miter;stroke-miterlimit:4;stroke-dasharray:none;stroke-opacity:1"
         id="path194" /></g><g
       id="g196"
       transform="translate(85.5871,604.634)"><path
         d="M 0,0 H 466.165"
         style="fill:none;stroke:#4f4c4d;stroke-width:0.496;stroke-linecap:butt;stroke-linejoin:miter;stroke-miterlimit:4;stroke-dasharray:none;stroke-opacity:1"
         id="path198" /></g><g
       id="g200"
       transform="translate(85.5871,592.931)"><path
         d="M 0,0 H 466.165"
         style="fill:none;stroke:#4f4c4d;stroke-width:0.496;stroke-linecap:butt;stroke-linejoin:miter;stroke-miterlimit:4;stroke-dasharray:none;stroke-opacity:1"
         id="path202" /></g><g
       id="g204"
       transform="translate(85.5871,577.7173)"><path
         d="M 0,0 H 466.165"
         style="fill:none;stroke:#4f4c4d;stroke-width:0.496;stroke-linecap:butt;stroke-linejoin:miter;stroke-miterlimit:4;stroke-dasharray:none;stroke-opacity:1"
         id="path206" /></g><g
       id="g208"
       transform="translate(85.5871,556.3585)"><path
         d="M 0,0 H 466.165"
         style="fill:none;stroke:#4f4c4d;stroke-width:0.496;stroke-linecap:butt;stroke-linejoin:miter;stroke-miterlimit:4;stroke-dasharray:none;stroke-opacity:1"
         id="path210" /></g><g
       id="g212"
       transform="translate(82.742,520.0781)"><path
         d="M 0,0 H 469.01"
         style="fill:none;stroke:#4f4c4d;stroke-width:0.496;stroke-linecap:butt;stroke-linejoin:miter;stroke-miterlimit:4;stroke-dasharray:none;stroke-opacity:1"
         id="path214" /></g><g
       id="g216"
       transform="translate(85.584,514.8121)"><path
         d="M 0,0 H 466.168"
         style="fill:none;stroke:#4f4c4d;stroke-width:0.496;stroke-linecap:butt;stroke-linejoin:miter;stroke-miterlimit:4;stroke-dasharray:none;stroke-opacity:1"
         id="path218" /></g><g
       id="g220"
       transform="translate(85.584,508.3752)"><path
         d="M 0,0 H 466.168"
         style="fill:none;stroke:#4f4c4d;stroke-width:0.496;stroke-linecap:butt;stroke-linejoin:miter;stroke-miterlimit:4;stroke-dasharray:none;stroke-opacity:1"
         id="path222" /></g><g
       id="g224"
       transform="translate(85.584,501.318)"><path
         d="M 0,0 H 466.168"
         style="fill:none;stroke:#4f4c4d;stroke-width:0.496;stroke-linecap:butt;stroke-linejoin:miter;stroke-miterlimit:4;stroke-dasharray:none;stroke-opacity:1"
         id="path226" /></g><g
       id="g228"
       transform="translate(85.584,493.0152)"><path
         d="M 0,0 H 466.168"
         style="fill:none;stroke:#231f20;stroke-width:0.31;stroke-linecap:butt;stroke-linejoin:miter;stroke-miterlimit:4;stroke-dasharray:none;stroke-opacity:1"
         id="path230" /></g><g
       id="g232"
       transform="translate(85.584,483.401)"><path
         d="M 0,0 H 466.168"
         style="fill:none;stroke:#4f4c4d;stroke-width:0.496;stroke-linecap:butt;stroke-linejoin:miter;stroke-miterlimit:4;stroke-dasharray:none;stroke-opacity:1"
         id="path234" /></g><g
       id="g236"
       transform="translate(85.584,471.5999)"><path
         d="M 0,0 H 466.168"
         style="fill:none;stroke:#4f4c4d;stroke-width:0.496;stroke-linecap:butt;stroke-linejoin:miter;stroke-miterlimit:4;stroke-dasharray:none;stroke-opacity:1"
         id="path238" /></g><g
       id="g240"
       transform="translate(85.584,456.8516)"><path
         d="M 0,0 H 466.168"
         style="fill:none;stroke:#4f4c4d;stroke-width:0.496;stroke-linecap:butt;stroke-linejoin:miter;stroke-miterlimit:4;stroke-dasharray:none;stroke-opacity:1"
         id="path242" /></g><g
       id="g244"
       transform="translate(85.584,435.218)"><path
         d="M 0,0 H 466.168"
         style="fill:none;stroke:#4f4c4d;stroke-width:0.496;stroke-linecap:butt;stroke-linejoin:miter;stroke-miterlimit:4;stroke-dasharray:none;stroke-opacity:1"
         id="path246" /></g><g
       id="g248"
       transform="translate(82.742,398.9474)"><path
         d="M 0,0 H 469.01"
         style="fill:none;stroke:#231f20;stroke-width:0.31;stroke-linecap:butt;stroke-linejoin:miter;stroke-miterlimit:4;stroke-dasharray:none;stroke-opacity:1"
         id="path250" /></g><g
       id="g252"
       transform="translate(85.6277,393.374)"><path
         d="M 0,0 H 466.124"
         style="fill:none;stroke:#4f4c4d;stroke-width:0.496;stroke-linecap:butt;stroke-linejoin:miter;stroke-miterlimit:4;stroke-dasharray:none;stroke-opacity:1"
         id="path254" /></g><g
       id="g256"
       transform="translate(85.6277,387.363)"><path
         d="M 0,0 H 466.124"
         style="fill:none;stroke:#4f4c4d;stroke-width:0.496;stroke-linecap:butt;stroke-linejoin:miter;stroke-miterlimit:4;stroke-dasharray:none;stroke-opacity:1"
         id="path258" /></g><g
       id="g260"
       transform="translate(85.6277,380.2629)"><path
         d="M 0,0 H 466.124"
         style="fill:none;stroke:#4f4c4d;stroke-width:0.496;stroke-linecap:butt;stroke-linejoin:miter;stroke-miterlimit:4;stroke-dasharray:none;stroke-opacity:1"
         id="path262" /></g><g
       id="g264"
       transform="translate(85.6277,371.8511)"><path
         d="M 0,0 H 466.124"
         style="fill:none;stroke:#4f4c4d;stroke-width:0.496;stroke-linecap:butt;stroke-linejoin:miter;stroke-miterlimit:4;stroke-dasharray:none;stroke-opacity:1"
         id="path266" /></g><g
       id="g268"
       transform="translate(85.6277,362.5642)"><path
         d="M 0,0 H 466.124"
         style="fill:none;stroke:#4f4c4d;stroke-width:0.496;stroke-linecap:butt;stroke-linejoin:miter;stroke-miterlimit:4;stroke-dasharray:none;stroke-opacity:1"
         id="path270" /></g><g
       id="g272"
       transform="translate(85.6277,350.8739)"><path
         d="M 0,0 H 466.124"
         style="fill:none;stroke:#231f20;stroke-width:0.31;stroke-linecap:butt;stroke-linejoin:miter;stroke-miterlimit:4;stroke-dasharray:none;stroke-opacity:1"
         id="path274" /></g><g
       id="g276"
       transform="translate(85.6277,335.6864)"><path
         d="M 0,0 H 466.124"
         style="fill:none;stroke:#4f4c4d;stroke-width:0.496;stroke-linecap:butt;stroke-linejoin:miter;stroke-miterlimit:4;stroke-dasharray:none;stroke-opacity:1"
         id="path278" /></g><g
       id="g280"
       transform="translate(85.6277,314.4902)"><path
         d="M 0,0 H 466.124"
         style="fill:none;stroke:#4f4c4d;stroke-width:0.496;stroke-linecap:butt;stroke-linejoin:miter;stroke-miterlimit:4;stroke-dasharray:none;stroke-opacity:1"
         id="path282" /></g><g
       id="g284"
       transform="translate(82.742,277.8898)"><path
         d="M 0,0 H 469.01"
         style="fill:none;stroke:#4f4c4d;stroke-width:0.496;stroke-linecap:butt;stroke-linejoin:miter;stroke-miterlimit:4;stroke-dasharray:none;stroke-opacity:1"
         id="path286" /></g><g
       id="g288"
       transform="translate(85.5532,272.208)"><path
         d="M 0,0 H 466.199"
         style="fill:none;stroke:#4f4c4d;stroke-width:0.496;stroke-linecap:butt;stroke-linejoin:miter;stroke-miterlimit:4;stroke-dasharray:none;stroke-opacity:1"
         id="path290" /></g><g
       id="g292"
       transform="translate(85.5532,266.0906)"><path
         d="M 0,0 H 466.199"
         style="fill:none;stroke:#231f20;stroke-width:0.31;stroke-linecap:butt;stroke-linejoin:miter;stroke-miterlimit:4;stroke-dasharray:none;stroke-opacity:1"
         id="path294" /></g><g
       id="g296"
       transform="translate(85.5532,259.2072)"><path
         d="M 0,0 H 466.199"
         style="fill:none;stroke:#4f4c4d;stroke-width:0.496;stroke-linecap:butt;stroke-linejoin:miter;stroke-miterlimit:4;stroke-dasharray:none;stroke-opacity:1"
         id="path298" /></g><g
       id="g300"
       transform="translate(85.5532,251.4511)"><path
         d="M 0,0 H 466.199"
         style="fill:none;stroke:#4f4c4d;stroke-width:0.496;stroke-linecap:butt;stroke-linejoin:miter;stroke-miterlimit:4;stroke-dasharray:none;stroke-opacity:1"
         id="path302" /></g><g
       id="g304"
       transform="translate(85.5532,241.5097)"><path
         d="M 0,0 H 466.199"
         style="fill:none;stroke:#4f4c4d;stroke-width:0.496;stroke-linecap:butt;stroke-linejoin:miter;stroke-miterlimit:4;stroke-dasharray:none;stroke-opacity:1"
         id="path306" /></g><g
       id="g308"
       transform="translate(85.5532,230.1473)"><path
         d="M 0,0 H 466.199"
         style="fill:none;stroke:#4f4c4d;stroke-width:0.496;stroke-linecap:butt;stroke-linejoin:miter;stroke-miterlimit:4;stroke-dasharray:none;stroke-opacity:1"
         id="path310" /></g><g
       id="g312"
       transform="translate(85.5532,214.633)"><path
         d="M 0,0 H 466.199"
         style="fill:none;stroke:#4f4c4d;stroke-width:0.496;stroke-linecap:butt;stroke-linejoin:miter;stroke-miterlimit:4;stroke-dasharray:none;stroke-opacity:1"
         id="path314" /></g><g
       id="g316"
       transform="translate(85.5532,193.4381)"><path
         d="M 0,0 H 466.199"
         style="fill:none;stroke:#4f4c4d;stroke-width:0.496;stroke-linecap:butt;stroke-linejoin:miter;stroke-miterlimit:4;stroke-dasharray:none;stroke-opacity:1"
         id="path318" /></g><g
       id="g320"
       transform="translate(82.742,157.1657)"><path
         d="M 0,0 H 469.01"
         style="fill:none;stroke:#231f20;stroke-width:0.805;stroke-linecap:butt;stroke-linejoin:miter;stroke-miterlimit:4;stroke-dasharray:none;stroke-opacity:1"
         id="path322" /></g><g
       id="g324"><g
         id="g326"
         clip-path="url(#clipPath330)"><g
           id="g332"
           transform="translate(102.0993,761.9464)"><path
             d="m 0,0 8.543,-85.931 c 0,0 3.265,-27.89 3.769,-31.658 0.501,-3.77 2.26,-15.327 2.763,-18.09 0.503,-2.765 3.267,-15.078 3.518,-18.344 0.252,-3.266 8.292,-51.507 8.292,-51.507 l 21.106,-131.912 19.598,-121.86 c 0,0 6.281,-38.443 7.035,-41.457 0.754,-3.016 6.029,-29.146 6.029,-30.153 0,-1.005 4.021,-18.842 5.277,-31.406 2.011,-12.313 7.287,-42.212 7.287,-42.212"
             style="fill:none;stroke:#ff000d;stroke-width:2.478;stroke-linecap:butt;stroke-linejoin:miter;stroke-miterlimit:4;stroke-dasharray:none;stroke-opacity:1"
             id="path334" /></g><g
           id="g336"
           transform="translate(147.3264,762.1982)"
           style="stroke:#ff000d;stroke-opacity:1"><path
             d="m 0,0 c 0,0 6.28,-67.086 6.532,-68.594 0.251,-1.507 4.522,-40.2 5.025,-42.965 0.502,-2.765 5.528,-51.007 6.03,-53.518 0.503,-2.513 4.523,-34.676 4.775,-36.686 0.25,-2.008 5.778,-39.195 5.778,-39.195 0,0 4.522,-29.398 5.026,-31.911 0.502,-2.512 11.307,-64.573 11.307,-64.573 l 13.317,-73.365 10.553,-51.512 13.818,-65.327 16.332,-77.135"
             style="fill:none;stroke:#ff000d;stroke-width:2.478;stroke-linecap:butt;stroke-linejoin:miter;stroke-miterlimit:4;stroke-dasharray:none;stroke-opacity:1"
             id="path338" /></g><g
           id="g340"
           transform="translate(159.8892,762.1982)"
           style="stroke:#ff000d;stroke-opacity:1"><path
             d="m 0,0 c 0,0 3.015,-34.925 3.267,-36.685 0.251,-1.758 3.013,-32.663 3.013,-32.663 0,0 3.77,-33.669 4.022,-34.673 0.251,-1.005 5.276,-42.464 6.281,-46.734 1.004,-4.272 9.799,-58.545 10.553,-61.308 0.754,-2.763 6.03,-34.423 7.035,-38.443 1.005,-4.021 10.804,-45.477 10.804,-45.477 l 8.795,-41.961 c 0,0 12.563,-55.779 17.839,-79.65 5.276,-23.87 19.849,-83.417 19.849,-83.417 l 24.373,-103.519"
             style="fill:none;stroke:#ff000d;stroke-width:2.478;stroke-linecap:butt;stroke-linejoin:miter;stroke-miterlimit:4;stroke-dasharray:none;stroke-opacity:1"
             id="path342" /></g><g
           id="g344"
           transform="translate(186.7731,762.1982)"
           style="stroke:#ff000d;stroke-opacity:1"><path
             d="m 0,0 c 0,0 5.025,-55.529 5.277,-58.543 0.251,-3.015 4.02,-35.429 4.02,-35.429 0,0 3.769,-31.909 4.523,-37.688 0.753,-5.779 8.291,-50.251 8.542,-52.01 0.251,-1.76 11.558,-64.574 12.312,-67.589 0.754,-3.015 19.096,-85.429 19.096,-85.429 0,0 22.614,-101.258 23.367,-103.77 0.754,-2.512 15.327,-64.574 15.327,-64.574 l 23.367,-99.749"
             style="fill:none;stroke:#ff000d;stroke-width:2.478;stroke-linecap:butt;stroke-linejoin:miter;stroke-miterlimit:4;stroke-dasharray:none;stroke-opacity:1"
             id="path346" /></g><g
           id="g348"
           transform="translate(199.3365,762.1982)"
           style="stroke:#ff000d;stroke-opacity:1"><path
             d="m 0,0 c 0,0 3.265,-28.896 3.77,-32.163 0.502,-3.265 5.275,-30.4 5.275,-30.4 l 8.041,-54.776 c 0,0 11.809,-71.609 12.312,-73.367 0.502,-1.759 7.788,-44.223 8.543,-48.997 0.753,-4.773 7.788,-33.166 8.542,-35.929 0.755,-2.764 8.292,-34.422 8.292,-34.422 0,0 10.051,-33.669 14.071,-52.01 4.02,-18.343 14.321,-57.792 15.075,-60.556 0.753,-2.763 15.076,-58.292 15.076,-58.292 l 7.285,-29.395 c 0,0 24.373,-92.966 26.132,-94.726"
             style="fill:none;stroke:#ff000d;stroke-width:2.478;stroke-linecap:butt;stroke-linejoin:miter;stroke-miterlimit:4;stroke-dasharray:none;stroke-opacity:1"
             id="path350" /></g><g
           id="g352"
           transform="translate(217.4273,762.1982)"
           style="stroke:#ff000d;stroke-opacity:1"><path
             d="m 0,0 c 0,0 3.016,-27.638 3.267,-29.648 0.251,-2.011 7.538,-48.243 8.291,-53.268 0.754,-5.026 10.302,-64.071 10.302,-64.071 l 5.527,-34.171 c 0,0 10.554,-58.546 11.558,-63.568 1.005,-5.027 14.071,-59.801 17.085,-68.846 3.015,-9.045 11.306,-45.478 12.061,-47.488 0.755,-2.01 21.608,-85.931 21.608,-85.931 l 23.117,-90.202 19.096,-67.84"
             style="fill:none;stroke:#ff000d;stroke-width:2.478;stroke-linecap:butt;stroke-linejoin:miter;stroke-miterlimit:4;stroke-dasharray:none;stroke-opacity:1"
             id="path354" /></g><g
           id="g356"
           transform="translate(230.7446,762.1982)"
           style="stroke:#ff000d;stroke-opacity:1"><path
             d="m 0,0 c 0,0 1.507,-18.343 2.009,-21.86 0.503,-3.518 5.276,-32.413 5.779,-35.931 0.504,-3.517 4.02,-24.12 4.272,-26.381 0.25,-2.263 5.277,-34.924 5.527,-36.684 0.251,-1.759 7.538,-46.986 7.538,-46.986 l 6.533,-37.689 6.532,-36.683 c 0,0 5.78,-25.88 6.533,-29.147 0.755,-3.265 10.051,-36.683 10.302,-37.939 0.251,-1.257 11.557,-43.971 14.823,-59.047 3.268,-15.076 10.806,-42.46 10.806,-42.46 l 9.799,-38.445 c 0,0 11.056,-44.475 13.065,-51.005 2.011,-6.533 13.316,-53.017 15.829,-61.309 2.514,-8.293 12.815,-43.467 12.815,-43.467"
             style="fill:none;stroke:#ff000d;stroke-width:2.478;stroke-linecap:butt;stroke-linejoin:miter;stroke-miterlimit:4;stroke-dasharray:none;stroke-opacity:1"
             id="path358" /></g><g
           id="g360"
           transform="translate(238.0311,762.1982)"
           style="stroke:#ff000d;stroke-opacity:1"><path
             d="m 0,0 c 0,0 1.508,-22.11 1.758,-24.623 0.252,-2.513 2.012,-20.856 3.017,-28.392 1.003,-7.539 4.522,-27.137 5.023,-30.654 0.504,-3.518 5.779,-33.418 6.282,-36.432 0.503,-3.016 4.02,-21.107 5.277,-27.138 1.256,-6.029 8.04,-34.171 8.04,-34.171 l 6.281,-27.638 c 0,0 9.297,-34.673 9.8,-36.683 0.501,-2.011 10.05,-33.418 10.05,-33.418 0,0 8.543,-27.388 9.297,-29.65 0.753,-2.261 12.06,-41.959 12.563,-43.718 0.502,-1.759 15.075,-51.759 15.075,-51.759 l 16.834,-56.284 c 0,0 14.322,-44.975 14.824,-46.23 0.502,-1.256 16.081,-45.228 16.081,-45.228 l 20.603,-52.763"
             style="fill:none;stroke:#ff000d;stroke-width:2.478;stroke-linecap:butt;stroke-linejoin:miter;stroke-miterlimit:4;stroke-dasharray:none;stroke-opacity:1"
             id="path362" /></g><g
           id="g364"
           transform="translate(253.2272,762.1292)"
           style="stroke:#ff000d;stroke-opacity:1"><path
             d="m 0,0 c 0,0 2.322,-28.579 2.858,-34.295 0.536,-5.717 4.823,-38.94 6.251,-46.263 1.428,-7.325 6.609,-37.512 6.788,-38.762 0.178,-1.249 4.109,-21.612 4.466,-23.757 0.357,-2.143 5.357,-24.114 5.357,-24.114 0,0 6.076,-25.9 7.146,-28.937 1.072,-3.036 9.11,-36.259 9.645,-38.402 0.537,-2.145 8.039,-29.652 8.576,-31.259 0.535,-1.609 8.931,-27.688 8.931,-27.688 l 15.181,-50.906 14.111,-49.121 11.61,-42.691 11.078,-38.047 c 0,0 15.002,-46.442 17.505,-52.692 2.499,-6.254 9.108,-28.225 9.108,-28.225 l 9.468,-28.579 7.145,-20.899"
             style="fill:none;stroke:#ff000d;stroke-width:2.478;stroke-linecap:butt;stroke-linejoin:miter;stroke-miterlimit:4;stroke-dasharray:none;stroke-opacity:1"
             id="path366" /></g><g
           id="g368"
           transform="translate(286.6314,762.3088)"
           style="stroke:#ff000d;stroke-opacity:1"><path
             d="m 0,0 c 0,0 1.607,-24.472 1.786,-26.258 0.178,-1.785 1.965,-22.148 2.859,-28.401 0.892,-6.251 3.929,-27.864 4.286,-30.186 0.357,-2.323 5.179,-35.19 5.358,-36.618 0.179,-1.429 3.93,-23.937 5.18,-32.153 1.251,-8.216 4.644,-27.151 4.823,-28.043 0.179,-0.893 4.823,-25.006 4.823,-25.006 l 6.609,-35.012 c 0,0 2.502,-11.611 3.035,-15.004 0.539,-3.394 0.716,-5.358 1.431,-7.682 0.716,-2.322 3.035,-11.61 3.215,-12.502 0.179,-0.894 2.323,-11.61 2.859,-13.576 0.536,-1.964 3.034,-15.361 3.572,-17.683 0.534,-2.323 3.036,-17.326 3.57,-19.113 0.537,-1.786 6.79,-31.079 6.79,-31.079 l 7.501,-30.723 9.111,-37.333 c 0,0 6.073,-26.436 6.61,-27.685 0.534,-1.251 8.752,-34.118 8.752,-34.118 0,0 4.642,-19.649 5.18,-20.721 0.534,-1.07 4.999,-21.256 6.072,-24.293 1.07,-3.034 5.183,-18.04 6.966,-22.504 1.788,-4.467 7.501,-21.97 8.753,-25.008 1.252,-3.038 9.109,-24.472 9.109,-24.472"
             style="fill:none;stroke:#ff000d;stroke-width:2.478;stroke-linecap:butt;stroke-linejoin:miter;stroke-miterlimit:4;stroke-dasharray:none;stroke-opacity:1"
             id="path370" /></g><g
           id="g372"
           transform="translate(306.2193,762.0807)"
           style="stroke:#ff000d;stroke-opacity:1"><path
             d="m 0,0 c 0,0 1.315,-22.523 1.689,-26.464 0.374,-3.94 3.564,-33.219 3.564,-33.219 0,0 1.879,-13.137 2.255,-15.764 0.375,-2.626 2.438,-16.703 2.813,-18.767 0.376,-2.064 4.129,-27.777 4.129,-27.777 l 2.629,-17.83 3.753,-21.582 4.318,-22.897 3.752,-21.019 6.758,-36.224 8.068,-37.159 6.756,-31.905 6.382,-31.906 7.695,-33.782 8.633,-36.035 c 0,0 12.762,-49.546 13.136,-51.422 0.377,-1.877 11.263,-44.667 11.263,-44.667 l 5.067,-21.771 8.069,-25.148 c 0,0 4.316,-13.886 6.757,-19.894 0,0 5.817,-17.078 7.693,-21.021 1.876,-3.939 3.568,-8.631 3.568,-8.631"
             style="fill:none;stroke:#ff000d;stroke-width:2.478;stroke-linecap:butt;stroke-linejoin:miter;stroke-miterlimit:4;stroke-dasharray:none;stroke-opacity:1"
             id="path374" /></g><g
           id="g376"
           transform="translate(315.4154,762.2695)"
           style="stroke:#ff000d;stroke-opacity:1"><path
             d="m 0,0 c 0,0 1.499,-29.464 2.814,-40.726 1.314,-11.26 5.066,-40.161 5.066,-40.161 0,0 1.315,-5.256 1.502,-8.822 0.187,-3.565 2.441,-16.892 3.004,-19.893 0.563,-3.004 3.188,-22.897 3.188,-22.897 0,0 2.253,-12.2 2.442,-14.64 0.188,-2.442 1.502,-9.009 2.626,-15.391 1.129,-6.38 3.567,-17.454 3.943,-21.019 0.375,-3.567 1.877,-11.636 2.253,-13.138 0.375,-1.502 5.628,-30.592 6.755,-35.848 1.127,-5.254 3.942,-19.518 3.942,-19.518 l 5.629,-26.649 c 0,0 3.191,-14.64 4.131,-17.642 0.938,-3.003 4.503,-22.708 5.629,-28.339 1.127,-5.631 7.318,-33.969 7.318,-33.969 l 9.759,-42.602 9.009,-35.848 c 0,0 15.014,-59.306 15.765,-61.933 0.751,-2.629 5.443,-22.71 5.443,-22.71 0,0 6.756,-24.211 8.822,-29.84 2.064,-5.633 7.506,-22.146 11.448,-32.845 3.942,-10.698 7.695,-20.642 7.695,-20.642"
             style="fill:none;stroke:#ff000d;stroke-width:2.478;stroke-linecap:butt;stroke-linejoin:miter;stroke-miterlimit:4;stroke-dasharray:none;stroke-opacity:1"
             id="path378" /></g><g
           id="g380"
           transform="translate(325.9257,762.2677)"
           style="stroke:#ff000d;stroke-opacity:1"><path
             d="m 0,0 c 0,0 1.125,-25.898 1.689,-29.84 0.563,-3.942 3.378,-30.968 3.941,-33.971 0.562,-3.002 9.571,-52.363 10.885,-57.242 1.314,-4.88 2.065,-11.449 3.004,-15.389 0.938,-3.942 5.254,-20.833 5.254,-20.833 l 8.635,-36.786 8.256,-34.907 10.509,-45.232 8.634,-35.845 8.259,-34.532 c 0,0 3.755,-16.14 4.693,-20.082 0.936,-3.94 6.567,-26.273 6.567,-26.273 l 11.259,-43.729 13.514,-49.36 11.825,-47.671 10.321,-36.783 9.946,-36.41"
             style="fill:none;stroke:#ff000d;stroke-width:2.478;stroke-linecap:butt;stroke-linejoin:miter;stroke-miterlimit:4;stroke-dasharray:none;stroke-opacity:1"
             id="path382" /></g><g
           id="g384"
           transform="translate(353.5152,762.2664)"
           style="stroke:#ff000d;stroke-opacity:1"><path
             d="m 0,0 c 0,0 4.13,-34.72 4.506,-37.16 0.374,-2.439 6.003,-36.785 6.753,-39.037 0.751,-2.252 4.882,-22.146 4.882,-22.146 0,0 3.565,-15.765 4.128,-18.017 0.565,-2.253 3.378,-16.329 4.694,-19.895 1.313,-3.566 5.628,-17.453 6.192,-20.643 0.564,-3.191 4.129,-19.706 4.88,-21.959 0.75,-2.252 6.191,-27.589 7.88,-34.159 1.692,-6.568 4.883,-22.145 5.821,-26.086 0.937,-3.94 5.441,-24.397 6.192,-26.838 0.749,-2.44 7.132,-29.277 7.132,-29.277 l 7.319,-29.09 3.943,-13.513 c 0,0 6.381,-19.893 6.944,-21.583 0.563,-1.689 4.691,-15.576 4.691,-15.576 0,0 6.568,-18.957 8.631,-26.837 2.068,-7.884 7.137,-23.275 7.884,-25.903 0.752,-2.625 6.382,-21.582 6.946,-23.835 0.563,-2.251 9.948,-33.219 10.699,-35.281 0.747,-2.066 7.694,-27.215 9.007,-31.532 1.314,-4.314 3.754,-15.013 4.693,-17.453 0.935,-2.438 8.256,-25.9 9.383,-29.84 1.128,-3.941 7.697,-25.525 8.631,-27.965 0.939,-2.44 3.568,-11.26 3.568,-11.26"
             style="fill:none;stroke:#ff000d;stroke-width:2.478;stroke-linecap:butt;stroke-linejoin:miter;stroke-miterlimit:4;stroke-dasharray:none;stroke-opacity:1"
             id="path386" /></g></g></g><text
       transform="matrix(0.99998847,0,0,-1,62.2096,759.9055)"
       style="font-variant:normal;font-weight:normal;font-stretch:normal;font-size:8.6745px;font-family:ABBvoice;-inkscape-font-specification:ABBvoice-Regular;writing-mode:lr-tb;fill:#231f20;fill-opacity:1;fill-rule:nonzero;stroke:none"
       id="text398"><tspan
         x="0 3.7387094 9.1689463 14.599183"
         y="0"
         sodipodi:role="line"
         id="tspan388">1000</tspan><tspan
         x="5.4302368 9.1689463 14.599183"
         y="121.00928"
         sodipodi:role="line"
         id="tspan390">100</tspan><tspan
         x="16.030476"
         y="363.01917"
         id="tspan392">1</tspan><tspan
         x="10.860474 14.599183"
         y="241.8364"
         sodipodi:role="line"
         id="tspan394">10</tspan><tspan
         x="8.8046179 13.801129 16.030476"
         y="484.21927"
         sodipodi:role="line"
         id="tspan396">0.1</tspan></text><text
       transform="matrix(0,1,1,0,61.9489,395.401)"
       style="font-variant:normal;font-weight:normal;font-stretch:normal;font-size:8.6745px;font-family:ABBvoice;-inkscape-font-specification:ABBvoice-Regular;writing-mode:lr-tb;fill:#231f20;fill-opacity:1;fill-rule:nonzero;stroke:none"
       id="text402"><tspan
         x="0 5.2654214 8.5010099 13.298009 16.334084 21.191803 24.427391 28.868736 31.280247 36.406876 41.863136 43.945019 47.47554 49.887051 57.876263 62.673264 64.755142 67.635078 72.111122"
         y="0"
         sodipodi:role="line"
         id="tspan400">Pre-arcing time [s]</tspan></text><text
       transform="matrix(0.99998847,0,0,-1,263.6237,136.5601)"
       style="font-variant:normal;font-weight:normal;font-stretch:normal;font-size:8.6745px;font-family:ABBvoice;-inkscape-font-specification:ABBvoice-Regular;writing-mode:lr-tb;fill:#231f20;fill-opacity:1;fill-rule:nonzero;stroke:none"
       id="text410"><tspan
         x="0 5.2654214 8.5010099 13.835828 18.311869 23.768129 28.565128 33.136589 36.66711 39.078621 43.29443 48.091427 50.173309 54.614651 59.723934 63.133011 66.368599 71.165596 76.205482 79.822746 81.904633 85.0448 90.830688"
         y="0"
         sodipodi:role="line"
         id="tspan404">Prospective current [A]</tspan><tspan
         x="-197.6051 -192.6086 -190.81297 -185.38274"
         y="-18.320543"
         sodipodi:role="line"
         id="tspan406">0.01</tspan><tspan
         x="-178.87686 -175.13815 -25.572426 -21.833717 -16.403479 125.04292 128.78163 134.21187 139.64211 272.30991 276.04861 281.47885 286.90909 292.33932"
         y="-9.6720676"
         sodipodi:role="line"
         id="tspan408">10100100010000</tspan></text><path
       d="m 161.695,412.913 h -22.346 v 8.339 h 22.346 z"
       style="fill:#ffffff;fill-opacity:1;fill-rule:nonzero;stroke:none"
       id="path412" /><text
       transform="matrix(0.99998847,0,0,-1,139.3362,415.1007)"
       style="font-variant:normal;font-weight:normal;font-stretch:normal;font-size:8.6745px;font-family:ABBvoice;-inkscape-font-specification:ABBvoice-Regular;writing-mode:lr-tb;fill:#231f20;fill-opacity:1;fill-rule:nonzero;stroke:none"
       id="text416"><tspan
         x="0 5.1266294 7.3559761 12.083578 14.165459"
         y="0"
         sodipodi:role="line"
         id="tspan414">6.3 A</tspan></text><path
       d="m 201.695,412.913 h -19.404 v 8.339 h 19.404 z"
       style="fill:#ffffff;fill-opacity:1;fill-rule:nonzero;stroke:none"
       id="path418" /><text
       transform="matrix(0.99998847,0,0,-1,182.2507,415.1007)"
       style="font-variant:normal;font-weight:normal;font-stretch:normal;font-size:8.6745px;font-family:ABBvoice;-inkscape-font-specification:ABBvoice-Regular;writing-mode:lr-tb;fill:#231f20;fill-opacity:1;fill-rule:nonzero;stroke:none"
       id="text422"><tspan
         x="0 3.7387094 9.1689463 11.250827"
         y="0"
         sodipodi:role="line"
         id="tspan420">10 A</tspan></text><path
       d="m 219.824,441.09 h -19.405 v 8.337 h 19.405 z"
       style="fill:#ffffff;fill-opacity:1;fill-rule:nonzero;stroke:none"
       id="path424" /><text
       transform="matrix(0.99998847,0,0,-1,200.684,443.2789)"
       style="font-variant:normal;font-weight:normal;font-stretch:normal;font-size:8.6745px;font-family:ABBvoice;-inkscape-font-specification:ABBvoice-Regular;writing-mode:lr-tb;fill:#231f20;fill-opacity:1;fill-rule:nonzero;stroke:none"
       id="text428"><tspan
         x="0 3.7387094 8.8653393 10.947219"
         y="0"
         sodipodi:role="line"
         id="tspan426">16 A</tspan></text><path
       d="m 252.731,412.913 h -19.405 v 8.339 h 19.405 z"
       style="fill:#ffffff;fill-opacity:1;fill-rule:nonzero;stroke:none"
       id="path430" /><text
       transform="matrix(0.99998847,0,0,-1,233.8844,414.9084)"
       style="font-variant:normal;font-weight:normal;font-stretch:normal;font-size:8.6745px;font-family:ABBvoice;-inkscape-font-specification:ABBvoice-Regular;writing-mode:lr-tb;fill:#231f20;fill-opacity:1;fill-rule:nonzero;stroke:none"
       id="text434"><tspan
         x="0 4.6321831 10.06242"
         y="0"
         sodipodi:role="line"
         id="tspan432">20A</tspan></text><path
       d="m 329.383,441.09 h -19.405 v 8.337 h 19.405 z"
       style="fill:#ffffff;fill-opacity:1;fill-rule:nonzero;stroke:none"
       id="path436" /><text
       transform="matrix(0.99998847,0,0,-1,310.7441,443.0859)"
       style="font-variant:normal;font-weight:normal;font-stretch:normal;font-size:8.6745px;font-family:ABBvoice;-inkscape-font-specification:ABBvoice-Regular;writing-mode:lr-tb;fill:#231f20;fill-opacity:1;fill-rule:nonzero;stroke:none"
       id="text440"><tspan
         x="0 5.1266294 9.8542318"
         y="0"
         sodipodi:role="line"
         id="tspan438">63A</tspan></text><path
       d="m 365.049,441.09 h -19.405 v 8.337 h 19.405 z"
       style="fill:#ffffff;fill-opacity:1;fill-rule:nonzero;stroke:none"
       id="path442" /><text
       transform="matrix(0.99998847,0,0,-1,343.6256,443.0859)"
       style="font-variant:normal;font-weight:normal;font-stretch:normal;font-size:8.6745px;font-family:ABBvoice;-inkscape-font-specification:ABBvoice-Regular;writing-mode:lr-tb;fill:#231f20;fill-opacity:1;fill-rule:nonzero;stroke:none"
       id="text446"><tspan
         x="0 3.7387094 9.1689463 14.599183"
         y="0"
         sodipodi:role="line"
         id="tspan444">100A</tspan></text><path
       d="m 398.351,441.09 h -19.405 v 8.337 h 19.405 z"
       style="fill:#ffffff;fill-opacity:1;fill-rule:nonzero;stroke:none"
       id="path448" /><text
       transform="matrix(0.99998847,0,0,-1,377.2321,443.0859)"
       style="font-variant:normal;font-weight:normal;font-stretch:normal;font-size:8.6745px;font-family:ABBvoice;-inkscape-font-specification:ABBvoice-Regular;writing-mode:lr-tb;fill:#231f20;fill-opacity:1;fill-rule:nonzero;stroke:none"
       id="text452"><tspan
         x="0 3.7387094 8.8653393 14.295576"
         y="0"
         sodipodi:role="line"
         id="tspan450">160A</tspan></text><path
       d="m 384.957,412.913 h -19.405 v 8.339 h 19.405 z"
       style="fill:#ffffff;fill-opacity:1;fill-rule:nonzero;stroke:none"
       id="path454" /><text
       transform="matrix(0.99998847,0,0,-1,364.4805,414.9084)"
       style="font-variant:normal;font-weight:normal;font-stretch:normal;font-size:8.6745px;font-family:ABBvoice;-inkscape-font-specification:ABBvoice-Regular;writing-mode:lr-tb;fill:#231f20;fill-opacity:1;fill-rule:nonzero;stroke:none"
       id="text458"><tspan
         x="0 4.0856895 8.7178726 13.653663"
         y="0"
         sodipodi:role="line"
         id="tspan456">125A</tspan></text><path
       d="m 439.916,412.913 h -19.404 v 8.339 h 19.404 z"
       style="fill:#ffffff;fill-opacity:1;fill-rule:nonzero;stroke:none"
       id="path460" /><text
       transform="matrix(0.99998847,0,0,-1,417.5996,414.9084)"
       style="font-variant:normal;font-weight:normal;font-stretch:normal;font-size:8.6745px;font-family:ABBvoice;-inkscape-font-specification:ABBvoice-Regular;writing-mode:lr-tb;fill:#231f20;fill-opacity:1;fill-rule:nonzero;stroke:none"
       id="text464"><tspan
         x="0 4.6321831 10.06242 15.492657"
         y="0"
         sodipodi:role="line"
         id="tspan462">200A</tspan></text><path
       d="m 298.447,441.09 h -19.405 v 8.337 h 19.405 z"
       style="fill:#ffffff;fill-opacity:1;fill-rule:nonzero;stroke:none"
       id="path466" /><text
       transform="matrix(0.99998847,0,0,-1,279.011,443.0859)"
       style="font-variant:normal;font-weight:normal;font-stretch:normal;font-size:8.6745px;font-family:ABBvoice;-inkscape-font-specification:ABBvoice-Regular;writing-mode:lr-tb;fill:#231f20;fill-opacity:1;fill-rule:nonzero;stroke:none"
       id="text470"><tspan
         x="0 5.2220492 10.652286"
         y="0"
         sodipodi:role="line"
         id="tspan468">40A</tspan></text><path
       d="m 322.881,412.913 h -19.404 v 8.339 h 19.404 z"
       style="fill:#ffffff;fill-opacity:1;fill-rule:nonzero;stroke:none"
       id="path472" /><text
       transform="matrix(0.99998847,0,0,-1,303.7318,414.9095)"
       style="font-variant:normal;font-weight:normal;font-stretch:normal;font-size:8.6745px;font-family:ABBvoice;-inkscape-font-specification:ABBvoice-Regular;writing-mode:lr-tb;fill:#231f20;fill-opacity:1;fill-rule:nonzero;stroke:none"
       id="text476"><tspan
         x="0 4.9357905 10.366028"
         y="0"
         sodipodi:role="line"
         id="tspan474">50A</tspan></text><path
       d="m 353.623,412.913 h -19.405 v 8.339 h 19.405 z"
       style="fill:#ffffff;fill-opacity:1;fill-rule:nonzero;stroke:none"
       id="path478" /><text
       transform="matrix(0.99998847,0,0,-1,334.2528,414.9095)"
       style="font-variant:normal;font-weight:normal;font-stretch:normal;font-size:8.6745px;font-family:ABBvoice;-inkscape-font-specification:ABBvoice-Regular;writing-mode:lr-tb;fill:#231f20;fill-opacity:1;fill-rule:nonzero;stroke:none"
       id="text482"><tspan
         x="0 5.1526532 10.58289"
         y="0"
         sodipodi:role="line"
         id="tspan480">80A</tspan></text><path
       d="m 264.061,441.09 h -19.404 v 8.337 h 19.404 z"
       style="fill:#ffffff;fill-opacity:1;fill-rule:nonzero;stroke:none"
       id="path484" /><text
       transform="matrix(0.99998847,0,0,-1,245.7096,443.0859)"
       style="font-variant:normal;font-weight:normal;font-stretch:normal;font-size:8.6745px;font-family:ABBvoice;-inkscape-font-specification:ABBvoice-Regular;writing-mode:lr-tb;fill:#231f20;fill-opacity:1;fill-rule:nonzero;stroke:none"
       id="text488"><tspan
         x="0 4.6321831 9.5679731"
         y="0"
         sodipodi:role="line"
         id="tspan486">25A</tspan></text><path
       d="M 289.286,412.913 H 269.88 v 8.339 h 19.406 z"
       style="fill:#ffffff;fill-opacity:1;fill-rule:nonzero;stroke:none"
       id="path490" /><text
       transform="matrix(0.99998847,0,0,-1,266.5693,414.9084)"
       style="font-variant:normal;font-weight:normal;font-stretch:normal;font-size:8.6745px;font-family:ABBvoice;-inkscape-font-specification:ABBvoice-Regular;writing-mode:lr-tb;fill:#231f20;fill-opacity:1;fill-rule:nonzero;stroke:none"
       id="text494"><tspan
         x="0 4.7276025 8.7265472 10.955894 15.891684"
         y="0"
         sodipodi:role="line"
         id="tspan492">31.5A</tspan></text></g></svg>
